<svg width="200" height="200" viewBox="0 0 200 200" xmlns="http://www.w3.org/2000/svg">
  <circle cx="100" cy="100" r="90" fill="#1DB954"/>
  <path d="M140 60C140 44.3 124.7 32 100 32C75.3 32 60 44.3 60 60C60 75.7 75.3 88 100 88C124.7 88 140 75.7 140 60Z" fill="#FFF"/>
  <path d="M100 92C74.3 92 60 104.3 60 120C60 135.7 74.3 148 100 148C125.7 148 140 135.7 140 120C140 104.3 125.7 92 100 92ZM95 123C92 123 90 122 90 120C90 118 92 117 95 117C97 117 99 118 99 120C99 122 97 123 95 123ZM105 130C102 130 100 129 100 127C100 125 102 124 105 124C107 124 109 125 109 127C109 129 107 130 105 130Z" fill="#FFF"/>
</svg>
